{
	"asset":{
		"generator":"Khronos glTF Blender I/O v5.2.40",
		"version":"2.0"
	},
	"scene":0,
	"scenes":[
		{
			"name":"Scene",
			"nodes":[
				0,
				1
			]
		}
	],
	"nodes":[
		{
			"mesh":0,
			"name":"Rock_Large",
			"scale":[
				2,
				2,
				3
			]
		},
		{
			"mesh":1,
			"name":"Rock_Small",
			"translation":[
				5,
				0,
				0
			]
		}
	],
	"meshes":[
		{
			"name":"Icosphere",
			"primitives":[
				{
					"attributes":{
						"POSITION":0,
						"NORMAL":1,
						"TEXCOORD_0":2,
						"TANGENT":3
					},
					"indices":4
				}
			]
		},
		{
			"name":"Icosphere.001",
			"primitives":[
				{
					"attributes":{
						"POSITION":5,
						"NORMAL":6,
						"TEXCOORD_0":7,
						"TANGENT":8
					},
					"indices":4
				}
			]
		}
	],
	"accessors":[
		{
			"bufferView":0,
			"componentType":5126,
			"count":240,
			"max":[
				1.0517748594284058,
				1,
				1.0049234628677368
			],
			"min":[
				-1.0517748594284058,
				-1,
				-1.1999999284744263
			],
			"type":"VEC3"
		},
		{
			"bufferView":1,
			"componentType":5126,
			"count":240,
			"type":"VEC3"
		},
		{
			"bufferView":2,
			"componentType":5126,
			"count":240,
			"type":"VEC2"
		},
		{
			"bufferView":3,
			"componentType":5126,
			"count":240,
			"type":"VEC4"
		},
		{
			"bufferView":4,
			"componentType":5123,
			"count":240,
			"type":"SCALAR"
		},
		{
			"bufferView":5,
			"componentType":5126,
			"count":240,
			"max":[
				1.0517748594284058,
				1,
				1.0049234628677368
			],
			"min":[
				-1.0517748594284058,
				-1,
				-1.1999999284744263
			],
			"type":"VEC3"
		},
		{
			"bufferView":6,
			"componentType":5126,
			"count":240,
			"type":"VEC3"
		},
		{
			"bufferView":7,
			"componentType":5126,
			"count":240,
			"type":"VEC2"
		},
		{
			"bufferView":8,
			"componentType":5126,
			"count":240,
			"type":"VEC4"
		}
	],
	"bufferViews":[
		{
			"buffer":0,
			"byteLength":2880,
			"byteOffset":0,
			"target":34962
		},
		{
			"buffer":0,
			"byteLength":2880,
			"byteOffset":2880,
			"target":34962
		},
		{
			"buffer":0,
			"byteLength":1920,
			"byteOffset":5760,
			"target":34962
		},
		{
			"buffer":0,
			"byteLength":3840,
			"byteOffset":7680,
			"target":34962
		},
		{
			"buffer":0,
			"byteLength":480,
			"byteOffset":11520,
			"target":34963
		},
		{
			"buffer":0,
			"byteLength":2880,
			"byteOffset":12000,
			"target":34962
		},
		{
			"buffer":0,
			"byteLength":2880,
			"byteOffset":14880,
			"target":34962
		},
		{
			"buffer":0,
			"byteLength":1920,
			"byteOffset":17760,
			"target":34962
		},
		{
			"buffer":0,
			"byteLength":3840,
			"byteOffset":19680,
			"target":34962
		}
	],
	"buffers":[
		{
			"byteLength":23520,
			"uri":"RockPack-ac10ae90c39319db551f2715fe14ca88.bin"
		}
	]
}
