{
	"asset":{
		"generator":"Khronos glTF Blender I/O v5.2.40",
		"version":"2.0"
	},
	"scene":0,
	"scenes":[
		{
			"name":"Scene",
			"nodes":[
				0,
				1,
				2,
				3,
				4,
				5,
				6,
				7,
				8,
				9,
				10,
				11
			]
		}
	],
	"nodes":[
		{
			"mesh":0,
			"name":"Canopy_Frame"
		},
		{
			"mesh":1,
			"name":"Canopy_Glass"
		},
		{
			"mesh":2,
			"name":"Cockpit_Shell"
		},
		{
			"mesh":3,
			"name":"Console_Display_Main"
		},
		{
			"mesh":4,
			"name":"Console_Housing"
		},
		{
			"mesh":5,
			"name":"HullShell"
		},
		{
			"mesh":6,
			"name":"Int_Corridor"
		},
		{
			"mesh":7,
			"name":"Int_Floor"
		},
		{
			"mesh":8,
			"name":"Seat_Back"
		},
		{
			"mesh":9,
			"name":"Seat_Base"
		},
		{
			"mesh":10,
			"name":"SideConsole_L"
		},
		{
			"mesh":11,
			"name":"SideConsole_R"
		}
	],
	"materials":[
		{
			"doubleSided":true,
			"name":"Graphite",
			"pbrMetallicRoughness":{
				"baseColorFactor":[
					0.05000000074505806,
					0.05000000074505806,
					0.05000000074505806,
					1
				],
				"metallicFactor":0.800000011920929,
				"roughnessFactor":0.5
			}
		},
		{
			"doubleSided":true,
			"name":"Glass",
			"pbrMetallicRoughness":{
				"baseColorFactor":[
					0.10000000149011612,
					0.10000000149011612,
					0.20000000298023224,
					1
				],
				"metallicFactor":0.10000000149011612,
				"roughnessFactor":0.05000000074505806
			}
		},
		{
			"doubleSided":true,
			"name":"Composite",
			"pbrMetallicRoughness":{
				"baseColorFactor":[
					0.30000001192092896,
					0.30000001192092896,
					0.3499999940395355,
					1
				],
				"metallicFactor":0.20000000298023224,
				"roughnessFactor":0.800000011920929
			}
		}
	],
	"meshes":[
		{
			"name":"Cone",
			"primitives":[
				{
					"attributes":{
						"POSITION":0,
						"NORMAL":1,
						"TEXCOORD_0":2
					},
					"indices":3,
					"material":0
				}
			]
		},
		{
			"name":"Cone.001",
			"primitives":[
				{
					"attributes":{
						"POSITION":4,
						"NORMAL":5,
						"TEXCOORD_0":6
					},
					"indices":3,
					"material":1
				}
			]
		},
		{
			"name":"Cylinder.001",
			"primitives":[
				{
					"attributes":{
						"POSITION":7,
						"NORMAL":8,
						"TEXCOORD_0":9
					},
					"indices":10,
					"material":0
				}
			]
		},
		{
			"name":"Cube.004",
			"primitives":[
				{
					"attributes":{
						"POSITION":11,
						"NORMAL":12,
						"TEXCOORD_0":13,
						"TANGENT":14
					},
					"indices":15,
					"material":1
				}
			]
		},
		{
			"name":"Cube.003",
			"primitives":[
				{
					"attributes":{
						"POSITION":16,
						"NORMAL":17,
						"TEXCOORD_0":18,
						"TANGENT":19
					},
					"indices":15,
					"material":0
				}
			]
		},
		{
			"name":"Cylinder",
			"primitives":[
				{
					"attributes":{
						"POSITION":20,
						"NORMAL":21,
						"TEXCOORD_0":22
					},
					"indices":10,
					"material":0
				}
			]
		},
		{
			"name":"Cube.008",
			"primitives":[
				{
					"attributes":{
						"POSITION":23,
						"NORMAL":24,
						"TEXCOORD_0":25,
						"TANGENT":26
					},
					"indices":15,
					"material":2
				}
			]
		},
		{
			"name":"Cube.007",
			"primitives":[
				{
					"attributes":{
						"POSITION":27,
						"NORMAL":28,
						"TEXCOORD_0":29,
						"TANGENT":30
					},
					"indices":15,
					"material":2
				}
			]
		},
		{
			"name":"Cube.002",
			"primitives":[
				{
					"attributes":{
						"POSITION":31,
						"NORMAL":32,
						"TEXCOORD_0":33,
						"TANGENT":34
					},
					"indices":15,
					"material":2
				}
			]
		},
		{
			"name":"Cube.001",
			"primitives":[
				{
					"attributes":{
						"POSITION":35,
						"NORMAL":36,
						"TEXCOORD_0":37,
						"TANGENT":38
					},
					"indices":15,
					"material":2
				}
			]
		},
		{
			"name":"Cube.005",
			"primitives":[
				{
					"attributes":{
						"POSITION":39,
						"NORMAL":40,
						"TEXCOORD_0":41,
						"TANGENT":42
					},
					"indices":15,
					"material":2
				}
			]
		},
		{
			"name":"Cube.006",
			"primitives":[
				{
					"attributes":{
						"POSITION":43,
						"NORMAL":44,
						"TEXCOORD_0":45,
						"TANGENT":46
					},
					"indices":15,
					"material":2
				}
			]
		}
	],
	"accessors":[
		{
			"bufferView":0,
			"componentType":5126,
			"count":192,
			"max":[
				6.199999809265137,
				2.5,
				2.5
			],
			"min":[
				4.199999809265137,
				-0.5,
				-2.5
			],
			"type":"VEC3"
		},
		{
			"bufferView":1,
			"componentType":5126,
			"count":192,
			"type":"VEC3"
		},
		{
			"bufferView":2,
			"componentType":5126,
			"count":192,
			"type":"VEC2"
		},
		{
			"bufferView":3,
			"componentType":5123,
			"count":372,
			"type":"SCALAR"
		},
		{
			"bufferView":4,
			"componentType":5126,
			"count":192,
			"max":[
				6.200000286102295,
				2.4000000953674316,
				2.299999952316284
			],
			"min":[
				4.400000095367432,
				-0.3999999761581421,
				-2.299999952316284
			],
			"type":"VEC3"
		},
		{
			"bufferView":5,
			"componentType":5126,
			"count":192,
			"type":"VEC3"
		},
		{
			"bufferView":6,
			"componentType":5126,
			"count":192,
			"type":"VEC2"
		},
		{
			"bufferView":7,
			"componentType":5126,
			"count":192,
			"max":[
				6,
				3,
				3
			],
			"min":[
				1.999999761581421,
				-3,
				-3
			],
			"type":"VEC3"
		},
		{
			"bufferView":8,
			"componentType":5126,
			"count":192,
			"type":"VEC3"
		},
		{
			"bufferView":9,
			"componentType":5126,
			"count":192,
			"type":"VEC2"
		},
		{
			"bufferView":10,
			"componentType":5123,
			"count":372,
			"type":"SCALAR"
		},
		{
			"bufferView":11,
			"componentType":5126,
			"count":24,
			"max":[
				5.050000190734863,
				0.6000000238418579,
				0.6000000238418579
			],
			"min":[
				4.949999809265137,
				-0.20000000298023224,
				-0.6000000238418579
			],
			"type":"VEC3"
		},
		{
			"bufferView":12,
			"componentType":5126,
			"count":24,
			"type":"VEC3"
		},
		{
			"bufferView":13,
			"componentType":5126,
			"count":24,
			"type":"VEC2"
		},
		{
			"bufferView":14,
			"componentType":5126,
			"count":24,
			"type":"VEC4"
		},
		{
			"bufferView":15,
			"componentType":5123,
			"count":36,
			"type":"SCALAR"
		},
		{
			"bufferView":16,
			"componentType":5126,
			"count":24,
			"max":[
				5,
				0.949999988079071,
				1
			],
			"min":[
				4.600000381469727,
				-0.550000011920929,
				-1
			],
			"type":"VEC3"
		},
		{
			"bufferView":17,
			"componentType":5126,
			"count":24,
			"type":"VEC3"
		},
		{
			"bufferView":18,
			"componentType":5126,
			"count":24,
			"type":"VEC2"
		},
		{
			"bufferView":19,
			"componentType":5126,
			"count":24,
			"type":"VEC4"
		},
		{
			"bufferView":20,
			"componentType":5126,
			"count":192,
			"max":[
				7.000000476837158,
				10,
				10
			],
			"min":[
				-7.000000476837158,
				-10,
				-10
			],
			"type":"VEC3"
		},
		{
			"bufferView":21,
			"componentType":5126,
			"count":192,
			"type":"VEC3"
		},
		{
			"bufferView":22,
			"componentType":5126,
			"count":192,
			"type":"VEC2"
		},
		{
			"bufferView":23,
			"componentType":5126,
			"count":24,
			"max":[
				2,
				1,
				1
			],
			"min":[
				-2,
				-1,
				-1
			],
			"type":"VEC3"
		},
		{
			"bufferView":24,
			"componentType":5126,
			"count":24,
			"type":"VEC3"
		},
		{
			"bufferView":25,
			"componentType":5126,
			"count":24,
			"type":"VEC2"
		},
		{
			"bufferView":26,
			"componentType":5126,
			"count":24,
			"type":"VEC4"
		},
		{
			"bufferView":27,
			"componentType":5126,
			"count":24,
			"max":[
				5,
				-0.8999999761581421,
				2
			],
			"min":[
				-5,
				-1.100000023841858,
				-2
			],
			"type":"VEC3"
		},
		{
			"bufferView":28,
			"componentType":5126,
			"count":24,
			"type":"VEC3"
		},
		{
			"bufferView":29,
			"componentType":5126,
			"count":24,
			"type":"VEC2"
		},
		{
			"bufferView":30,
			"componentType":5126,
			"count":24,
			"type":"VEC4"
		},
		{
			"bufferView":31,
			"componentType":5126,
			"count":24,
			"max":[
				3.5999999046325684,
				0.800000011920929,
				0.3499999940395355
			],
			"min":[
				3.4000000953674316,
				-0.40000003576278687,
				-0.3499999940395355
			],
			"type":"VEC3"
		},
		{
			"bufferView":32,
			"componentType":5126,
			"count":24,
			"type":"VEC3"
		},
		{
			"bufferView":33,
			"componentType":5126,
			"count":24,
			"type":"VEC2"
		},
		{
			"bufferView":34,
			"componentType":5126,
			"count":24,
			"type":"VEC4"
		},
		{
			"bufferView":35,
			"componentType":5126,
			"count":24,
			"max":[
				3.8499999046325684,
				-0.3499999940395355,
				0.3499999940395355
			],
			"min":[
				3.1500000953674316,
				-0.6499999761581421,
				-0.3499999940395355
			],
			"type":"VEC3"
		},
		{
			"bufferView":36,
			"componentType":5126,
			"count":24,
			"type":"VEC3"
		},
		{
			"bufferView":37,
			"componentType":5126,
			"count":24,
			"type":"VEC2"
		},
		{
			"bufferView":38,
			"componentType":5126,
			"count":24,
			"type":"VEC4"
		},
		{
			"bufferView":39,
			"componentType":5126,
			"count":24,
			"max":[
				4.400000095367432,
				0.30000001192092896,
				-1
			],
			"min":[
				3.5999999046325684,
				-0.30000001192092896,
				-1.4000000953674316
			],
			"type":"VEC3"
		},
		{
			"bufferView":40,
			"componentType":5126,
			"count":24,
			"type":"VEC3"
		},
		{
			"bufferView":41,
			"componentType":5126,
			"count":24,
			"type":"VEC2"
		},
		{
			"bufferView":42,
			"componentType":5126,
			"count":24,
			"type":"VEC4"
		},
		{
			"bufferView":43,
			"componentType":5126,
			"count":24,
			"max":[
				4.400000095367432,
				0.30000001192092896,
				1.4000000953674316
			],
			"min":[
				3.5999999046325684,
				-0.30000001192092896,
				1
			],
			"type":"VEC3"
		},
		{
			"bufferView":44,
			"componentType":5126,
			"count":24,
			"type":"VEC3"
		},
		{
			"bufferView":45,
			"componentType":5126,
			"count":24,
			"type":"VEC2"
		},
		{
			"bufferView":46,
			"componentType":5126,
			"count":24,
			"type":"VEC4"
		}
	],
	"bufferViews":[
		{
			"buffer":0,
			"byteLength":2304,
			"byteOffset":0,
			"target":34962
		},
		{
			"buffer":0,
			"byteLength":2304,
			"byteOffset":2304,
			"target":34962
		},
		{
			"buffer":0,
			"byteLength":1536,
			"byteOffset":4608,
			"target":34962
		},
		{
			"buffer":0,
			"byteLength":744,
			"byteOffset":6144,
			"target":34963
		},
		{
			"buffer":0,
			"byteLength":2304,
			"byteOffset":6888,
			"target":34962
		},
		{
			"buffer":0,
			"byteLength":2304,
			"byteOffset":9192,
			"target":34962
		},
		{
			"buffer":0,
			"byteLength":1536,
			"byteOffset":11496,
			"target":34962
		},
		{
			"buffer":0,
			"byteLength":2304,
			"byteOffset":13032,
			"target":34962
		},
		{
			"buffer":0,
			"byteLength":2304,
			"byteOffset":15336,
			"target":34962
		},
		{
			"buffer":0,
			"byteLength":1536,
			"byteOffset":17640,
			"target":34962
		},
		{
			"buffer":0,
			"byteLength":744,
			"byteOffset":19176,
			"target":34963
		},
		{
			"buffer":0,
			"byteLength":288,
			"byteOffset":19920,
			"target":34962
		},
		{
			"buffer":0,
			"byteLength":288,
			"byteOffset":20208,
			"target":34962
		},
		{
			"buffer":0,
			"byteLength":192,
			"byteOffset":20496,
			"target":34962
		},
		{
			"buffer":0,
			"byteLength":384,
			"byteOffset":20688,
			"target":34962
		},
		{
			"buffer":0,
			"byteLength":72,
			"byteOffset":21072,
			"target":34963
		},
		{
			"buffer":0,
			"byteLength":288,
			"byteOffset":21144,
			"target":34962
		},
		{
			"buffer":0,
			"byteLength":288,
			"byteOffset":21432,
			"target":34962
		},
		{
			"buffer":0,
			"byteLength":192,
			"byteOffset":21720,
			"target":34962
		},
		{
			"buffer":0,
			"byteLength":384,
			"byteOffset":21912,
			"target":34962
		},
		{
			"buffer":0,
			"byteLength":2304,
			"byteOffset":22296,
			"target":34962
		},
		{
			"buffer":0,
			"byteLength":2304,
			"byteOffset":24600,
			"target":34962
		},
		{
			"buffer":0,
			"byteLength":1536,
			"byteOffset":26904,
			"target":34962
		},
		{
			"buffer":0,
			"byteLength":288,
			"byteOffset":28440,
			"target":34962
		},
		{
			"buffer":0,
			"byteLength":288,
			"byteOffset":28728,
			"target":34962
		},
		{
			"buffer":0,
			"byteLength":192,
			"byteOffset":29016,
			"target":34962
		},
		{
			"buffer":0,
			"byteLength":384,
			"byteOffset":29208,
			"target":34962
		},
		{
			"buffer":0,
			"byteLength":288,
			"byteOffset":29592,
			"target":34962
		},
		{
			"buffer":0,
			"byteLength":288,
			"byteOffset":29880,
			"target":34962
		},
		{
			"buffer":0,
			"byteLength":192,
			"byteOffset":30168,
			"target":34962
		},
		{
			"buffer":0,
			"byteLength":384,
			"byteOffset":30360,
			"target":34962
		},
		{
			"buffer":0,
			"byteLength":288,
			"byteOffset":30744,
			"target":34962
		},
		{
			"buffer":0,
			"byteLength":288,
			"byteOffset":31032,
			"target":34962
		},
		{
			"buffer":0,
			"byteLength":192,
			"byteOffset":31320,
			"target":34962
		},
		{
			"buffer":0,
			"byteLength":384,
			"byteOffset":31512,
			"target":34962
		},
		{
			"buffer":0,
			"byteLength":288,
			"byteOffset":31896,
			"target":34962
		},
		{
			"buffer":0,
			"byteLength":288,
			"byteOffset":32184,
			"target":34962
		},
		{
			"buffer":0,
			"byteLength":192,
			"byteOffset":32472,
			"target":34962
		},
		{
			"buffer":0,
			"byteLength":384,
			"byteOffset":32664,
			"target":34962
		},
		{
			"buffer":0,
			"byteLength":288,
			"byteOffset":33048,
			"target":34962
		},
		{
			"buffer":0,
			"byteLength":288,
			"byteOffset":33336,
			"target":34962
		},
		{
			"buffer":0,
			"byteLength":192,
			"byteOffset":33624,
			"target":34962
		},
		{
			"buffer":0,
			"byteLength":384,
			"byteOffset":33816,
			"target":34962
		},
		{
			"buffer":0,
			"byteLength":288,
			"byteOffset":34200,
			"target":34962
		},
		{
			"buffer":0,
			"byteLength":288,
			"byteOffset":34488,
			"target":34962
		},
		{
			"buffer":0,
			"byteLength":192,
			"byteOffset":34776,
			"target":34962
		},
		{
			"buffer":0,
			"byteLength":384,
			"byteOffset":34968,
			"target":34962
		}
	],
	"buffers":[
		{
			"byteLength":35352,
			"uri":"SentinelCraft-8d2534cc8ecd5c88a8b1184a6774edd4.bin"
		}
	]
}
